<svg width="100%" height="100%" viewBox="0 0 800 560" fill="none" xmlns="http://www.w3.org/2000/svg">
  <defs>
    <linearGradient id="gradient" x1="0" y1="0" x2="1" y2="1">
      <stop offset="0%" stop-color="#2563eb" />
      <stop offset="100%" stop-color="#60a5fa" />
    </linearGradient>
  </defs>
  <rect width="800" height="560" rx="50" fill="#eef2ff" />
  <circle cx="180" cy="130" r="80" fill="#dbeafe" />
  <path d="M560 430C560 480.524 524.524 516 475 516H193C143.476 516 108 480.524 108 431V327C108 277.476 143.476 242 193 242H475C524.524 242 560 277.476 560 327V430Z" fill="#eff6ff" />
  <path d="M231 323C231 316.373 236.373 311 243 311H302C308.627 311 314 316.373 314 323V365C314 371.627 308.627 377 302 377H243C236.373 377 231 371.627 231 365V323Z" fill="#bfdbfe" />
  <path d="M370 323C370 316.373 375.373 311 382 311H443C449.627 311 455 316.373 455 323V365C455 371.627 449.627 377 443 377H382C375.373 377 370 371.627 370 365V323Z" fill="#bfdbfe" />
  <path d="M278 192C278 174.431 292.431 160 310 160H410C427.569 160 442 174.431 442 192V292C442 309.569 427.569 324 410 324H310C292.431 324 278 309.569 278 292V192Z" fill="url(#gradient)" opacity="0.9" />
  <path d="M410 180C410 176.686 412.686 174 416 174H534C537.314 174 540 176.686 540 180V218C540 221.314 537.314 224 534 224H416C412.686 224 410 221.314 410 218V180Z" fill="#bfdbfe" />
  <circle cx="510" cy="245" r="12" fill="#93c5fd" />
  <circle cx="470" cy="285" r="16" fill="#60a5fa" />
  <circle cx="520" cy="335" r="10" fill="#bfdafe" />
  <path d="M430 402C430 388.192 441.192 377 455 377H516C529.808 377 541 388.192 541 402V431C541 444.808 529.808 456 516 456H455C441.192 456 430 444.808 430 431V402Z" fill="#fff" />
  <path d="M600 320C600 344.852 580.852 364 556 364H495C470.148 364 451 344.852 451 320V272C451 247.148 470.148 228 495 228H556C580.852 228 600 247.148 600 272V320Z" fill="#c7d2fe" />
  <path d="M160 470C160 481.045 150.045 491 139 491H107C95.9546 491 86 481.045 86 470V444C86 432.955 95.9546 423 107 423H139C150.045 423 160 432.955 160 444V470Z" fill="#93c5fd" opacity="0.65" />
  <path d="M530 60C530 77.673 515.673 92 498 92H342C324.327 92 310 77.673 310 60V40C310 22.327 324.327 8 342 8H498C515.673 8 530 22.327 530 40V60Z" fill="#2563eb" opacity="0.15" />
</svg>
